<?xml version="1.0" encoding="iso-8859-1"?>
<!-- Generator: Adobe Illustrator 21.0.0, SVG Export Plug-In . SVG Version: 6.00 Build 0)  -->
<svg version="1.1" xmlns="http://www.w3.org/2000/svg" xmlns:xlink="http://www.w3.org/1999/xlink" x="0px" y="0px" width="1400px"
	 height="1400px" viewBox="0 0 1400 1400" enable-background="new 0 0 1400 1400" xml:space="preserve">
<g id="Background">
	<radialGradient id="color_fill_1_" cx="700" cy="700" r="1146.4373" gradientUnits="userSpaceOnUse">
		<stop  offset="0" style="stop-color:#00567D"/>
		<stop  offset="1" style="stop-color:#000C22"/>
	</radialGradient>
	<rect id="color_fill" fill="url(#color_fill_1_)" width="1400" height="1400"/>
	<g id="light_bg_30" opacity="0.3">
		<path id="_x31_0_1_" opacity="0.1" fill="#FFFFFF" d="M1400,316.5C1326.8,183.2,1216.8,73.2,1083.5,0h-767
			C183.2,73.2,73.2,183.2,0,316.5v767c73.2,133.2,183.2,243.3,316.5,316.5h767c133.2-73.2,243.3-183.2,316.5-316.5V316.5z"/>
		<circle id="_x31_0" opacity="0.1" fill="#FFFFFF" cx="700" cy="700" r="613"/>
	</g>
</g>
<g id="Objects">
	<g id="world">
		<g>
			
				<radialGradient id="SVGID_1_" cx="449.5307" cy="-227.5387" r="628.5092" fx="296.5113" fy="-385.1494" gradientTransform="matrix(1 0 0 1 212.0052 886.8318)" gradientUnits="userSpaceOnUse">
				<stop  offset="0" style="stop-color:#00C8FF"/>
				<stop  offset="1" style="stop-color:#001A4A"/>
			</radialGradient>
			<circle fill="url(#SVGID_1_)" cx="700" cy="700" r="460"/>
			<g opacity="0.2">
				<path fill="#FFFFFF" d="M295.2,520.4l-12,47.8v43.4l12.9,60h3.7l-4.1-46.1l13.6,61.3l20.2,30.4l11.3,5.4h9.5V717l28.5,24.2h10.8
					l10.4,23.3l25.1,15.6v9.7l-5.4,14l2.7,22.1l-9,20.6v17.3l23.4,46.1l23.4,23.4l23,10.8l11.5,36.6l31,74.8l27.3,35.7l25.4,18.6
					l17.1,2.8v-3.8l-17.2-8.6l-10.4-17.2l-7.9-31.2l3.2-8.8h11.7l4.9-4.6l-2.5-7.6h-4.9l-2.5-6.9l2.9-2.9h12l11.5-14.7l4.9-25.4
					l11.4-12l18.3-2.9l12.9-11.9v-42.5l14-23v-12.9l-51.7-23.4l-21.4-2.7h-22l3.6-7.2v-12.2l-15.3-16l-35.4-17.1l-18.6-16.7h-19.7
					l-6.7-5h-25.2l-14.4-12.8h-11.7l-13-11.6V732l-6.7-10.8l-19.9,2.3l6.4-39.5l-2.9-3.2l-11.4,8.3l-7.5,15.4h-8.3l-9.2-21.2
					l-3.4-18.6v-23.4l10.5-8.8l19.7,4.6h7.6l4.9-13.7h7.8l16.4,12.4l6.3,31.3l3.9,3.4h6.4v-9.8l-5.6-18v-12.5l10.6-17.2l17.6-13.1
					l8.1-30.3l16.3-12l21.9-7.7v-6.1l-3.4-5l19.2-9.3l3.2,13.3l32.5-17.2v-7.7l-11.7,6.6l-7.2-3.2l-3.8-10.6l3.2-5l-5-3.4l-13.3,1.6
					l19.7-7.7l19.9-3.8l11.7-7.5l2.7,7.2l-8.6,13.8v7.5h12.9l13.8,8.4h6.3l7-8.6l-13.6-13.1v-26l-7-11.5h-8.6l-14.5-31.2l-8.6-4.7
					l-14.9,10.8h-5.9l4.5-11.7l-5-8.6l-16-7.5h-10.4l-4.5,18.1l-8.4,11.7l0.7,11.1l-7.7,8.8h-5.9l-3.2,5.6l-0.5,18.3l-9.3,4.7
					l-6.8-9l4.3-18.3L424,444l-1.8-14.9l18.1-19.2l25.8-15.6l-1.1-7.2h5.5l3.3,4.1l-7.2,10.2l2.9,3.4l9-5.4l5.4,3.8l5.2-0.7
					l-8.1-13.8l1.4-5.6l15.1-2.9l5.1-8.6l-8.7-5.1l-2.5,3.1l-12.2,5.2l5.2-10.2l-6.6-5.6l4.3-4.1l2-10.6l18.5-9.3l-5.4-3.4
					l-10.6,4.7l-3.6-1.8l-12.5,8.4l4,3.8l-8.4,18.8l-4.1-6.3l-5.6,3.4l-4.1,10.2l-9.7-0.5l-4.1-4.1l-9.3,3.8h-11.3L414,362
					l-19.9-5.6c-25.4,22.6-48.2,48-68.1,75.6l-6,34.1L295.2,520.4z"/>
				<polygon fill="#FFFFFF" points="559.8,369 561.6,356.6 545.3,341.7 531.1,342.6 531.5,334 514.3,329.9 495,351.6 498.8,360 
					497.8,361.1 504.2,364.9 504.2,358.4 515.5,356.6 529.5,364 529.5,376.2 501.9,394.5 499.2,403.6 507.1,398.8 517.7,398.8 
					541.7,414.6 545.8,414.6 545.8,409.9 539.2,401.1 541,399.5 550,408.3 557.3,402 547.6,387.8 549.1,382.6 556.4,381.2 
					561.3,390.2 570.4,388.7 571.7,383 578.5,381.9 570.8,372.4 				"/>
				<polygon fill="#FFFFFF" points="701.4,306.5 703.8,298.2 689.6,281.1 683.5,270.6 671.9,265.2 659.1,272.6 632,276 623.1,269.2 
					597.7,269.2 557.7,284.2 539.1,299.8 534,312.6 518.6,311.8 513.7,317.9 528.8,325.7 546.5,324.5 570.9,303.8 588.2,298.2 
					598.7,302.1 609.6,301.4 617,320.9 613.5,328 617,335.3 608.7,337.9 611.1,349.1 600.1,365.2 605.9,396.3 621.4,406.8 
					637.4,403.5 645.2,408.5 657.6,402.4 656,388.2 665.8,378 665.8,369.2 690.9,353.4 693.6,340.8 706.2,331.5 708.2,314.3 				"/>
				<polygon fill="#FFFFFF" points="450.6,338 448.1,334.9 452.6,333.5 457,327.7 448.1,323.6 429.8,332.6 421.9,346.9 427.4,353.2 
					421.9,357.7 423.5,365.8 428,367.9 436.2,362.4 450.9,364.7 451.1,359.1 464.4,343 463.1,333.8 				"/>
				<polygon fill="#FFFFFF" points="481,315.3 483,311.1 481.8,308.7 468.9,312.5 463.3,318.7 471.1,327.2 482.2,325.3 487.9,319.2 
					486.9,315.3 				"/>
				<polygon fill="#FFFFFF" points="714.3,354.3 708.2,361.8 711.3,368.2 724.1,372.3 739.7,367.2 739.7,357 724,358 				"/>
				<path fill="#FFFFFF" d="M934.6,304.2V315l18.6,14.6l-4.1,7.8l-14.6,6.8l-2.7-5.4l-4.7,2.7l3.1,18.6l-5.8,4.1l-9.8-8.8l4.1-7.8
					l-8.8-7.5l-41.3-15.3l-19,4.1l-10.2,38l-11.5,13.9v15.9l10.5,4.7l16.9-5.1l12.5,9.5l4.1,10.5l-3.2,6.3l4.2,2.4l7.5-7.3l3.4-14.9
					l-9-20.7l4.7-22.6l2.9-0.9l2.5,14.5l0.2,8.1l8.4,11.5l21.9-0.7l1.8,4.7l-11.7,2.9l1.4,9.3l-5,3.4l-0.7,10.4l-19,9.3l-18.1-2
					l-12.2-17.6l-4.3,0.5l3.4,21.5l-9.5,4.1l-8.6,17.8l-11.5,7.2l-17.2,3.6l-1.4,5.4l11.1,2.5l6.3,7.5l0.9,10.6l-4.7,5.6l-13.6-1.8
					l-20.8,10.2l4.1,8.1l1.1,22.6l20.1,9.3l11.7-2.3l17.4-12.4l15.6-28.7l29.4-2.9l20.6,11.5l11.1,16l-1.4,7l-6.8,3.4l0.9,1.8l9,2.9
					l10.8-10.6l-0.5-10.6l-12.7-10.4l-5-14.2l2.9-1.8l23.7,26l11.7,21.2l22.4,15.4l2.5-2.3l-13.8-15.6l-2.7-12.9l6.3-3.2l9,8.4
					l1.1,8.6l9.7,6.1l16.9-1.1l13.1,12l-4.1,20.8l-12,2.3l-33-6.3l-12.7-9.9l-6.3,5.4l-3.6,7l-40.2-16.9l-9.4-15.1l-32.5-2.4
					l-26.4,9.2l-15.6-2.7l-9.5,3.1l-20.7,25.1v11.9l-30.1,27.1l-9.5,28.9l4.1,13.1l-7.2,20.8l9,27.6l17.7,9.9l11.9,19.7l30.2,10.8
					l19-5.8l16.9,3.4l27.1-5.4l10.5,10.5h11.2v36.6l17.3,34.6v23.9L898,878.7v23.5l7.2,46.1l-3.6,16.3l14.5,7.7l33-6.8l23.5-28.9
					l4.5-15.8l14-8.1l9-28l21.7-15.4l10.8-23.9v-33.4l54.1-75.9l7.8-35.9h-5.4l-12.5,8.1l-11.2-5.8l-51.7-102.5l14,14.9l34.3,64.6
					l6.3,13.1l33-20.8l14-28.9l-13.6-29.8l-3.8,1.6l-3.7,7.1l-5.1-1.7l-20.3-32.3l3.2-1.8l16.3,19.4l17.2,2.7l9.9,9l11.3,2.3
					l13.1,33l7.7,61.5l10.9,26.2c1.1-13.2,1.7-26.5,1.7-40C1160,531.6,1069.6,384.4,934.6,304.2z"/>
				<path fill="#FFFFFF" d="M906.6,318.6l13.1,5.9l11.3-4.7l-15.1-10.2l-12-18.5l-1-4c-3.8-1.9-7.7-3.7-11.5-5.5l1,15.2L906.6,318.6
					z"/>
				<polygon fill="#FFFFFF" points="801.2,432.4 801.6,438.2 797.3,440.9 797.3,445.1 799.4,452.8 796.7,459.4 801.2,459.4 
					808.9,453.8 822.1,454.6 829.2,452.9 829.2,444.8 814.5,434.6 804,418.9 804,405.7 797.2,405.7 794,401.4 790.1,401.4 
					786,407.4 786,416.3 792.8,420.7 				"/>
				<polygon fill="#FFFFFF" points="770.6,444.5 771.9,450.4 780.4,450.4 790.1,446.5 790.1,430.4 787.7,423.3 782.4,423.3 
					769.6,429.7 769.6,434.5 773.8,438.4 				"/>
				<polygon fill="#FFFFFF" points="1047.8,869.1 1034.9,873.5 1031.9,893.5 1019.7,911.2 1022.4,920.6 1033.2,920.6 1065.1,872.2 
					1065.1,849.1 1058,853.5 				"/>
				<polygon fill="#FFFFFF" points="411.8,673 401.6,678.2 400.2,686.6 413.6,682.9 431.5,693.6 449.4,695.1 450,692.2 429.1,677.8 
									"/>
				<polygon fill="#FFFFFF" points="462.5,693.2 457.8,698.8 457.8,704.6 452.2,706.8 452.2,710.5 476.7,710.5 488.8,708.5 
					488.8,703.6 475,694.1 				"/>
			</g>
		</g>
		<path opacity="0.2" fill="#FFFFFF" d="M1066.1,591.9c26.6-2.3,53-4.8,79.3-7.5c-0.2-0.7-0.4-1.3-0.5-2
			c-26.2,2.7-52.6,5.3-79.1,7.5c-4.8-24.7-11.2-49-19.2-72.6c-2.3-6.8-4.8-13.6-7.3-20.2c23.4-2.3,46.7-4.9,69.8-7.7
			c-0.3-0.6-0.7-1.3-1-1.9c-23,2.8-46.2,5.4-69.5,7.7c-14.7-38-33.4-73.1-55.8-104.8c15.7-3.4,31.3-7.2,46.7-11.3
			c-0.5-0.6-1.1-1.1-1.7-1.7c-15.3,4-30.7,7.7-46.4,11.1c-5-7-10.1-13.8-15.4-20.5c-22.9-28.6-48.3-53.1-75.8-73.3
			c5.3-1.9,10.6-3.9,15.7-6c-0.8-0.4-1.6-0.8-2.4-1.2c-5,2-10.1,3.9-15.3,5.8c-13.4-9.7-27.3-18.4-41.7-26
			c-6.2-3.3-12.5-6.4-18.9-9.2c-4.8-1.4-9.6-2.7-14.4-3.9c10.9,4.3,21.7,9.3,32.3,14.9c13.9,7.4,27.4,15.7,40.4,25
			c-10.9,3.8-22,7.3-33.5,10.4c-13.4-14.3-27.5-26.7-42.3-37.1c-12.4-8.8-25.1-16-38-21.6c-2.8-0.4-5.6-0.9-8.4-1.2
			c15.4,6,30.5,14.2,45.2,24.5c14.4,10.2,28.2,22.2,41.3,36.1c-13.7,3.7-27.8,6.8-42.2,9.5c-19.9-34.7-42.1-59.2-65.7-72.5
			c-1.7-0.2-3.5-0.3-5.3-0.4c25.1,12.7,48.4,38.1,68.8,73.4c-16.1,2.9-32.6,5.1-49.3,6.6c-10.8-39.7-23.2-67.2-36.4-81
			c-1,0-1.9-0.1-2.9-0.1c6.3,6,12.5,15.4,18.5,28.2c6.7,14.1,12.9,31.9,18.7,53.1c-17.5,1.5-35.3,2.3-53.3,2.4v-84c-0.3,0-0.7,0-1,0
			c-0.3,0-0.7,0-1,0v84c-18,0-35.8-0.8-53.3-2.4c5.8-21.2,12.1-39,18.7-53.1c6-12.7,12.2-22.2,18.5-28.2c-1,0-1.9,0.1-2.9,0.1
			c-13.2,13.8-25.6,41.3-36.4,81c-16.8-1.5-33.2-3.7-49.3-6.6c20.4-35.3,43.7-60.7,68.8-73.4c-1.8,0.1-3.5,0.3-5.3,0.4
			c-23.6,13.3-45.9,37.9-65.7,72.5c-14.4-2.6-28.5-5.8-42.2-9.5c13.1-13.9,26.8-25.9,41.3-36.1c14.7-10.4,29.8-18.5,45.2-24.5
			c-2.8,0.4-5.6,0.8-8.4,1.2c-12.9,5.7-25.6,12.9-38,21.6c-14.8,10.4-28.9,22.8-42.3,37.1c-11.4-3.1-22.6-6.6-33.5-10.4
			c13-9.3,26.4-17.6,40.4-25c10.6-5.6,21.4-10.6,32.4-14.9c-4.8,1.2-9.6,2.5-14.4,3.9c-6.3,2.9-12.6,5.9-18.9,9.2
			c-14.4,7.6-28.3,16.3-41.7,26c-5.2-1.8-10.3-3.8-15.3-5.8c-0.8,0.4-1.6,0.8-2.4,1.2c5.2,2.1,10.4,4.1,15.7,6
			c-27.5,20.2-52.9,44.7-75.8,73.3c-5.3,6.6-10.4,13.5-15.4,20.5c-15.6-3.4-31.1-7.1-46.4-11.1c-0.6,0.6-1.1,1.1-1.6,1.7
			c15.4,4,31,7.8,46.7,11.3c-22.4,31.8-41,66.9-55.8,104.8c-23.3-2.3-46.5-4.9-69.5-7.7c-0.3,0.6-0.7,1.3-1,1.9
			c23.1,2.8,46.4,5.4,69.8,7.7c-2.6,6.7-5,13.4-7.3,20.2c-8,23.7-14.4,47.9-19.2,72.6c-26.5-2.3-52.9-4.8-79.1-7.5
			c-0.2,0.7-0.4,1.3-0.5,2c26.3,2.8,52.7,5.3,79.3,7.5c-6.6,34.9-9.9,70.7-10,107.1h-84c0,0.3,0,0.7,0,1s0,0.7,0,1h84
			c0.1,36.4,3.4,72.3,10,107.1c-26.6,2.3-53,4.8-79.3,7.5c0.2,0.7,0.4,1.3,0.5,2c26.2-2.7,52.6-5.3,79.1-7.5
			c4.8,24.7,11.2,49,19.2,72.6c2.3,6.8,4.8,13.6,7.3,20.2c-23.4,2.3-46.7,4.9-69.8,7.7c0.3,0.6,0.7,1.3,1,1.9
			c23-2.8,46.2-5.4,69.5-7.7c14.7,38,33.4,73.1,55.8,104.8c-15.7,3.4-31.3,7.2-46.7,11.3c0.5,0.6,1.1,1.1,1.6,1.7
			c15.3-4,30.7-7.7,46.4-11.1c5,7,10.1,13.8,15.4,20.5c22.9,28.6,48.3,53.1,75.8,73.3c-5.3,1.9-10.6,3.9-15.7,6
			c0.8,0.4,1.6,0.8,2.4,1.2c5-2,10.1-3.9,15.3-5.8c13.4,9.7,27.3,18.4,41.7,26c6.2,3.3,12.5,6.4,18.9,9.2c4.8,1.4,9.6,2.7,14.4,3.9
			c-10.9-4.3-21.7-9.3-32.4-14.9c-13.9-7.4-27.4-15.7-40.4-25c10.9-3.8,22-7.3,33.5-10.4c13.4,14.3,27.5,26.7,42.3,37.1
			c12.4,8.8,25.1,16,38,21.6c2.8,0.4,5.6,0.9,8.4,1.2c-15.4-6-30.5-14.2-45.2-24.5c-14.4-10.2-28.2-22.2-41.3-36.1
			c13.7-3.7,27.8-6.8,42.2-9.5c19.9,34.7,42.1,59.2,65.7,72.5c1.8,0.2,3.5,0.3,5.3,0.4c-25.1-12.7-48.4-38.1-68.8-73.4
			c16.1-2.9,32.6-5.1,49.3-6.6c10.8,39.7,23.2,67.2,36.4,81c1,0,1.9,0.1,2.9,0.1c-6.3-6-12.5-15.4-18.5-28.2
			c-6.7-14.1-12.9-31.9-18.7-53.1c17.5-1.5,35.3-2.3,53.3-2.4v84c0.3,0,0.7,0,1,0c0.3,0,0.7,0,1,0v-84c18,0,35.8,0.8,53.3,2.4
			c-5.8,21.2-12.1,39-18.7,53.1c-6,12.7-12.2,22.2-18.5,28.2c1,0,1.9-0.1,2.9-0.1c13.2-13.8,25.6-41.3,36.4-81
			c16.8,1.5,33.2,3.7,49.3,6.6c-20.4,35.3-43.7,60.7-68.8,73.4c1.8-0.1,3.5-0.3,5.3-0.4c23.6-13.3,45.9-37.9,65.7-72.5
			c14.4,2.6,28.5,5.8,42.2,9.5c-13.1,13.9-26.8,25.9-41.3,36.1c-14.7,10.4-29.8,18.5-45.2,24.5c2.8-0.4,5.6-0.8,8.4-1.2
			c12.9-5.7,25.6-12.9,38-21.6c14.8-10.4,28.9-22.8,42.3-37.1c11.4,3.1,22.6,6.6,33.5,10.4c-13,9.3-26.4,17.6-40.4,25
			c-10.6,5.6-21.4,10.6-32.3,14.9c4.8-1.2,9.6-2.5,14.4-3.9c6.3-2.9,12.6-5.9,18.9-9.2c14.4-7.6,28.3-16.3,41.7-26
			c5.2,1.8,10.3,3.8,15.3,5.8c0.8-0.4,1.6-0.8,2.4-1.2c-5.2-2.1-10.4-4.1-15.7-6c27.5-20.2,52.9-44.7,75.8-73.3
			c5.3-6.6,10.4-13.5,15.4-20.5c15.6,3.4,31.1,7.1,46.4,11.1c0.5-0.6,1.1-1.1,1.6-1.7c-15.4-4-31-7.8-46.7-11.3
			c22.4-31.8,41-66.9,55.8-104.8c23.3,2.3,46.5,4.9,69.5,7.7c0.3-0.6,0.7-1.3,1-1.9c-23.1-2.8-46.4-5.4-69.8-7.7
			c2.6-6.7,5-13.4,7.3-20.2c8-23.7,14.4-47.9,19.2-72.6c26.5,2.3,52.9,4.8,79.1,7.5c0.2-0.7,0.4-1.3,0.5-2
			c-26.3-2.8-52.7-5.3-79.3-7.5c6.6-34.9,9.9-70.7,10-107.1h84c0-0.3,0-0.7,0-1s0-0.7,0-1h-84C1076,662.5,1072.6,626.7,1066.1,591.9
			z M593.2,316.7c16.3,2.9,32.9,5.2,49.9,6.7c-3.6,13.6-7.1,28.6-10.4,44.9c-3,15-5.8,30.8-8.3,47.4c-23.8-1.3-47.4-3.2-70.7-5.6
			C565,374.4,578.3,342.9,593.2,316.7z M527.6,509.3c-5.2,29.5-9.2,60.3-12,92.1c-29.8-1.3-59.5-2.8-89-4.7
			c4.3-31.9,10.6-62.9,18.8-92.4C472.6,506.2,500,507.9,527.6,509.3z M445.9,502.2c9.9-35.4,22.5-68.8,37.7-99.5
			c22.2,3.6,44.7,6.6,67.4,9.1c-9.3,29.6-17,61.6-23.1,95.4C500.5,505.9,473.1,504.2,445.9,502.2z M605.2,699h-91.7
			c0-32.7,1.4-64.7,4-95.5c29.8,1.2,59.7,2.2,89.6,2.8C605.9,636.5,605.2,667.5,605.2,699z M607.1,793.7
			c-29.9,0.6-59.8,1.6-89.6,2.8c-2.6-30.8-4-62.8-4-95.5h91.7C605.2,732.5,605.9,763.5,607.1,793.7z M515.4,603.4
			c-2.6,31.1-3.9,63.1-4,95.6h-91.7c0-34.1,2.3-67.7,6.6-100.3C455.9,600.5,485.6,602.1,515.4,603.4z M511.5,701
			c0,32.5,1.4,64.5,4,95.6c-29.8,1.3-59.5,2.8-89.1,4.7c-4.3-32.6-6.5-66.2-6.6-100.3H511.5z M515.6,798.7
			c2.7,31.8,6.7,62.6,12,92.1c-27.5,1.4-55,3-82.2,5c-8.2-29.6-14.5-60.5-18.8-92.4C456.1,801.5,485.8,799.9,515.6,798.7z
			 M527.9,892.8c6.1,33.8,13.8,65.8,23.1,95.4c-22.7,2.5-45.2,5.5-67.4,9.1c-15.2-30.6-27.8-64-37.7-99.5
			C473.1,895.8,500.5,894.1,527.9,892.8z M530.1,892.7c27.6-1.3,55.3-2.4,83.1-3c2.9,32.7,6.6,63.8,10.9,92.7
			c-23.9,1.3-47.6,3.2-71,5.7C544,958.8,536.2,926.8,530.1,892.7z M529.7,890.6c-5.2-29.2-9.3-60-12-92c29.8-1.2,59.6-2.2,89.5-2.8
			c1.3,31.7,3.3,62.4,5.8,91.8C585.1,888.3,557.4,889.3,529.7,890.6z M517.7,601.4c2.7-32,6.8-62.8,12-92c27.7,1.3,55.4,2.4,83.3,3
			c-2.6,29.4-4.5,60.2-5.8,91.8C577.3,603.6,547.4,602.7,517.7,601.4z M530.1,507.3c6.2-34.1,13.9-66.1,23.1-95.3
			c23.4,2.5,47.1,4.4,71,5.7c-4.4,28.9-8,59.9-10.9,92.7C585.4,509.7,557.7,508.7,530.1,507.3z M548.3,306.7
			c13.9,3.8,28.2,7,42.8,9.6c-8.7,15.4-16.9,32.7-24.6,51.8c-5.3,13.3-10.3,27.2-14.8,41.7c-22.6-2.4-45-5.4-67.1-9
			c5.5-11,11.3-21.6,17.4-31.8C516.2,345.4,531.7,324.5,548.3,306.7z M435.6,369.2c23.1-28.8,48.7-53.5,76.5-73.7
			c11,3.9,22.3,7.5,33.9,10.6c-16.4,17.8-31.8,38.5-45.8,61.9c-6.3,10.4-12.2,21.3-17.8,32.5c-20.8-3.4-41.4-7.3-61.7-11.7
			C425.6,382.1,430.5,375.5,435.6,369.2z M419.5,390.6c20.4,4.4,41.1,8.4,62,11.8c-15.2,30.7-27.8,64.2-37.7,99.7
			c-26.9-2-53.6-4.3-80.2-6.9C378.4,457.3,397.1,422.3,419.5,390.6z M355.4,517.9c2.4-7,4.9-13.9,7.5-20.7
			c26.6,2.6,53.4,4.9,80.4,6.9c-8.2,29.6-14.4,60.5-18.7,92.4c-29.5-1.9-58.9-4-88.2-6.5C341.1,565.4,347.5,541.3,355.4,517.9z
			 M336,592c29.3,2.5,58.7,4.7,88.3,6.5c-4.3,32.6-6.5,66.2-6.6,100.4H326C326.1,662.6,329.4,626.8,336,592z M326,701h91.7
			c0,34.2,2.3,67.8,6.6,100.4c-29.6,1.9-59,4-88.3,6.5C329.4,773.2,326.1,737.4,326,701z M355.4,882.1c-7.9-23.5-14.3-47.6-19-72.2
			c29.2-2.5,58.6-4.6,88.2-6.5c4.3,31.9,10.6,62.9,18.7,92.4c-27,2-53.8,4.3-80.4,6.9C360.3,896,357.8,889.1,355.4,882.1z
			 M363.7,904.8c26.6-2.6,53.3-4.9,80.2-6.9c9.9,35.5,22.5,68.9,37.7,99.7c-20.9,3.4-41.6,7.4-62,11.8
			C397.1,977.7,378.4,942.7,363.7,904.8z M512.1,1104.6c-27.8-20.2-53.5-44.9-76.5-73.7c-5.1-6.4-10-13-14.8-19.7
			c20.3-4.4,40.9-8.3,61.7-11.7c5.6,11.2,11.5,22.1,17.8,32.5c14.1,23.4,29.4,44.1,45.8,61.9
			C534.5,1097.1,523.2,1100.7,512.1,1104.6z M548.3,1093.3c-16.6-17.9-32.1-38.7-46.3-62.4c-6.1-10.2-11.9-20.8-17.4-31.8
			c22.1-3.6,44.5-6.6,67.1-9c4.6,14.5,9.5,28.4,14.8,41.7c7.7,19.2,15.9,36.5,24.6,51.8C576.4,1086.4,562.2,1089.6,548.3,1093.3z
			 M593.2,1083.3c-14.9-26.2-28.2-57.7-39.5-93.4c23.3-2.5,46.9-4.4,70.7-5.6c2.5,16.6,5.3,32.4,8.3,47.4
			c3.3,16.3,6.7,31.3,10.4,44.9C626.2,1078.1,609.5,1080.4,593.2,1083.3z M699,1074c-18.2,0-36.2,0.8-53.8,2.4
			c-3.7-13.7-7.2-28.7-10.4-45.1c-3-14.9-5.7-30.6-8.2-47.1c23.9-1.2,48.1-1.9,72.5-1.9V1074z M699,980.3c-24.5,0-48.8,0.7-72.8,1.9
			c-4.4-28.9-8-59.9-10.9-92.6c27.8-0.7,55.8-1,83.8-1V980.3z M699,886.5c-28.1,0-56,0.4-83.9,1c-2.6-29.4-4.5-60.2-5.8-91.8
			c29.9-0.6,59.8-0.9,89.8-0.9V886.5z M699,792.7c-30,0-59.9,0.3-89.9,0.9c-1.2-30.2-1.8-61.2-1.9-92.7H699V792.7z M699,699h-91.7
			c0-31.5,0.6-62.5,1.9-92.7c29.9,0.6,59.9,0.9,89.9,0.9V699z M699,605.2c-30,0-59.9-0.3-89.8-0.9c1.3-31.7,3.3-62.4,5.8-91.8
			c27.9,0.7,55.9,1,83.9,1V605.2z M699,511.5c-28,0-55.9-0.4-83.8-1c2.9-32.7,6.6-63.7,10.9-92.6c24.1,1.3,48.3,1.9,72.8,1.9V511.5z
			 M699,417.7c-24.4,0-48.6-0.7-72.5-1.9c2.5-16.4,5.3-32.2,8.2-47.1c3.3-16.4,6.8-31.5,10.4-45.1c17.7,1.6,35.6,2.4,53.8,2.4V417.7
			z M1044.6,517.9c7.9,23.5,14.3,47.6,19,72.2c-29.2,2.5-58.6,4.6-88.2,6.5c-4.3-31.9-10.6-62.9-18.7-92.4c27-2,53.8-4.3,80.4-6.9
			C1039.7,504,1042.2,510.9,1044.6,517.9z M794.8,699c0-31.5-0.6-62.5-1.9-92.7c29.9-0.6,59.8-1.6,89.6-2.8c2.6,30.8,4,62.8,4,95.5
			H794.8z M886.5,701c0,32.7-1.4,64.7-4,95.5c-29.8-1.2-59.7-2.2-89.6-2.8c1.2-30.2,1.8-61.2,1.9-92.7H886.5z M872.4,509.3
			c27.5-1.4,55-3,82.2-5c8.2,29.6,14.5,60.5,18.8,92.4c-29.6,1.9-59.3,3.4-89,4.7C881.7,569.6,877.7,538.7,872.4,509.3z
			 M872.1,507.2c-6.1-33.8-13.8-65.8-23.1-95.4c22.7-2.5,45.2-5.5,67.4-9.1c15.2,30.6,27.8,64,37.7,99.5
			C926.9,504.2,899.5,505.9,872.1,507.2z M869.9,507.3c-27.6,1.3-55.3,2.4-83.1,3c-2.9-32.7-6.6-63.8-10.9-92.7
			c23.9-1.3,47.6-3.2,71-5.7C856,441.2,863.8,473.2,869.9,507.3z M870.3,509.4c5.2,29.2,9.3,60,12,92c-29.8,1.2-59.6,2.2-89.5,2.8
			c-1.3-31.7-3.3-62.4-5.8-91.8C814.9,511.7,842.6,510.7,870.3,509.4z M882.3,798.6c-2.7,32-6.8,62.8-12,92
			c-27.7-1.3-55.4-2.4-83.3-3c2.6-29.4,4.5-60.2,5.8-91.8C822.7,796.4,852.6,797.3,882.3,798.6z M869.9,892.7
			c-6.2,34.1-13.9,66.1-23.1,95.3c-23.4-2.5-47.1-4.4-71-5.7c4.4-28.9,8-59.9,10.9-92.7C814.6,890.3,842.3,891.3,869.9,892.7z
			 M872.1,892.8c27.5,1.3,54.8,3,82,5c-9.9,35.4-22.5,68.8-37.7,99.5c-22.2-3.6-44.7-6.6-67.4-9.1
			C858.3,958.6,866,926.5,872.1,892.8z M872.4,890.7c5.2-29.5,9.2-60.3,12-92.1c29.8,1.3,59.5,2.8,89,4.7
			c-4.3,31.9-10.6,62.9-18.8,92.4C927.4,893.8,900,892.1,872.4,890.7z M884.6,796.6c2.6-31.1,3.9-63.1,4-95.6h91.7
			c0,34.1-2.3,67.7-6.6,100.3C944.1,799.5,914.4,797.9,884.6,796.6z M888.5,699c0-32.5-1.4-64.5-4-95.6c29.8-1.3,59.5-2.8,89.1-4.7
			c4.3,32.6,6.5,66.2,6.6,100.3H888.5z M1036.3,495.2c-26.6,2.6-53.3,4.9-80.2,6.9c-9.9-35.5-22.5-68.9-37.7-99.7
			c20.9-3.4,41.6-7.4,62-11.8C1002.9,422.3,1021.6,457.3,1036.3,495.2z M887.9,295.4c27.8,20.2,53.5,44.9,76.5,73.7
			c5.1,6.4,10,13,14.8,19.7c-20.3,4.4-40.9,8.3-61.7,11.7c-5.6-11.2-11.5-22.1-17.8-32.5c-14.1-23.4-29.4-44.1-45.8-61.9
			C865.5,302.9,876.8,299.3,887.9,295.4z M851.7,306.7c16.6,17.9,32.1,38.7,46.3,62.4c6.1,10.2,11.9,20.8,17.4,31.8
			c-22.1,3.6-44.4,6.6-67.1,9c-4.6-14.5-9.5-28.4-14.8-41.7c-7.7-19.2-15.9-36.5-24.6-51.8C823.6,313.6,837.8,310.4,851.7,306.7z
			 M806.8,316.7c14.9,26.2,28.2,57.7,39.5,93.4c-23.3,2.5-46.9,4.4-70.7,5.6c-2.5-16.6-5.3-32.4-8.3-47.4
			c-3.3-16.3-6.7-31.3-10.4-44.9C773.8,321.9,790.5,319.6,806.8,316.7z M701,326c18.2,0,36.2-0.8,53.8-2.4
			c3.7,13.7,7.2,28.7,10.4,45.1c3,14.9,5.7,30.6,8.2,47.1c-23.9,1.2-48.1,1.9-72.5,1.9V326z M701,419.7c24.5,0,48.8-0.7,72.8-1.9
			c4.4,28.9,8,59.9,10.9,92.6c-27.8,0.7-55.8,1-83.8,1V419.7z M701,513.5c28.1,0,56-0.4,83.9-1c2.6,29.4,4.5,60.1,5.8,91.8
			c-29.9,0.6-59.8,0.9-89.8,0.9V513.5z M701,607.3c30,0,59.9-0.3,89.9-0.9c1.2,30.2,1.8,61.2,1.9,92.7H701V607.3z M701,701h91.7
			c0,31.5-0.6,62.5-1.9,92.7c-29.9-0.6-59.9-0.9-89.9-0.9V701z M701,794.8c30,0,59.9,0.3,89.8,0.9c-1.3,31.7-3.3,62.4-5.8,91.8
			c-27.9-0.7-55.9-1-83.9-1V794.8z M701,888.5c28,0,55.9,0.4,83.8,1c-2.9,32.7-6.6,63.7-10.9,92.6c-24.1-1.3-48.3-1.9-72.8-1.9
			V888.5z M754.9,1076.4c-17.7-1.6-35.6-2.4-53.8-2.4v-91.7c24.4,0,48.6,0.7,72.5,1.9c-2.5,16.4-5.3,32.2-8.2,47.1
			C762,1047.7,758.5,1062.7,754.9,1076.4z M806.8,1083.3c-16.3-2.9-32.9-5.2-49.9-6.7c3.6-13.6,7.1-28.6,10.4-44.9
			c3-15,5.8-30.8,8.3-47.4c23.8,1.3,47.4,3.2,70.7,5.6C835,1025.6,821.7,1057.1,806.8,1083.3z M851.7,1093.3
			c-13.9-3.8-28.2-7-42.8-9.6c8.7-15.4,16.9-32.7,24.6-51.8c5.3-13.3,10.3-27.2,14.8-41.7c22.6,2.4,45,5.4,67.1,9
			c-5.5,11-11.3,21.6-17.4,31.8C883.8,1054.6,868.3,1075.5,851.7,1093.3z M964.4,1030.8c-23.1,28.8-48.7,53.5-76.5,73.7
			c-11-3.9-22.3-7.5-33.9-10.6c16.4-17.8,31.8-38.5,45.8-61.9c6.3-10.4,12.2-21.3,17.8-32.5c20.8,3.4,41.4,7.3,61.7,11.7
			C974.4,1017.9,969.5,1024.5,964.4,1030.8z M980.5,1009.4c-20.4-4.4-41.1-8.4-62-11.8c15.2-30.7,27.8-64.2,37.7-99.7
			c26.9,2,53.6,4.3,80.2,6.9C1021.6,942.7,1002.9,977.7,980.5,1009.4z M1044.6,882.1c-2.4,7-4.9,13.9-7.5,20.7
			c-26.6-2.6-53.4-4.9-80.4-6.9c8.2-29.6,14.4-60.5,18.7-92.4c29.5,1.9,58.9,4,88.2,6.5C1058.9,834.6,1052.5,858.7,1044.6,882.1z
			 M1064,808c-29.3-2.5-58.7-4.7-88.3-6.5c4.3-32.6,6.5-66.2,6.6-100.4h91.7C1073.9,737.4,1070.6,773.2,1064,808z M982.3,699
			c0-34.2-2.3-67.8-6.6-100.4c29.6-1.9,59-4,88.3-6.5c6.6,34.8,9.9,70.6,10,107H982.3z"/>
	</g>
	<g id="connected_business_element">
		<g id="line">
			<g id="line_13_">
				
					<rect x="462.5" y="620.7" transform="matrix(0.2696 -0.963 0.963 0.2696 -208.3449 967.7972)" fill="#FFFFFF" width="142.6" height="1"/>
			</g>
			<g id="line_12_">
				
					<rect x="415.5" y="491.5" transform="matrix(0.8824 -0.4704 0.4704 0.8824 -233.1969 266.2061)" fill="#FFFFFF" width="1" height="216.2"/>
			</g>
			<g id="line_11_">
				
					<rect x="521.1" y="814.5" transform="matrix(0.9866 -0.1632 0.1632 0.9866 -139.7847 97.2017)" fill="#FFFFFF" width="1" height="169.4"/>
			</g>
			<g id="line_10_">
				
					<rect x="902.5" y="760.8" transform="matrix(0.6081 -0.7939 0.7939 0.6081 -220.6507 1075.6194)" fill="#FFFFFF" width="153.2" height="1"/>
			</g>
			<g id="line_9_">
				
					<rect x="496.4" y="851.1" transform="matrix(0.4885 -0.8725 0.8725 0.4885 -408.0239 1007.1846)" fill="#FFFFFF" width="317.5" height="1"/>
			</g>
			<g id="line_8_">
				
					<rect x="553.5" y="704" transform="matrix(0.9421 -0.3352 0.3352 0.9421 -199.6521 252.2043)" fill="#FFFFFF" width="154.5" height="1"/>
			</g>
			<g id="line_7_">
				
					<rect x="666.8" y="510.4" transform="matrix(0.6512 -0.7589 0.7589 0.6512 -202.6284 706.5439)" fill="#FFFFFF" width="1" height="126.6"/>
			</g>
			<g id="line_6_">
				
					<rect x="452" y="413.6" transform="matrix(0.18 -0.9837 0.9837 0.18 -90.2376 829.5928)" fill="#FFFFFF" width="1" height="110.7"/>
			</g>
			<g id="line_5_">
				
					<rect x="751.8" y="504.8" transform="matrix(0.5909 -0.8067 0.8067 0.5909 -49.5866 912.806)" fill="#FFFFFF" width="246.8" height="1"/>
			</g>
			<g id="line_4_">
				
					<rect x="828.7" y="652.6" transform="matrix(0.9997 -2.538244e-02 2.538244e-02 0.9997 -16.2828 23.4256)" fill="#FFFFFF" width="171.8" height="1"/>
			</g>
			<g id="line_3_">
				
					<rect x="828.3" y="703.7" transform="matrix(0.859 -0.512 0.512 0.859 -274.8728 532.2754)" fill="#FFFFFF" width="1" height="122.9"/>
			</g>
			<g id="line_2_">
				
					<rect x="623.9" y="421.6" transform="matrix(0.9499 -0.3124 0.3124 0.9499 -92.9086 264.266)" fill="#FFFFFF" width="308.8" height="1"/>
			</g>
			<g id="line_1_">
				
					<rect x="590" y="959.3" transform="matrix(0.8948 -0.4464 0.4464 0.8948 -352.8044 422.2087)" fill="#FFFFFF" width="259.1" height="1"/>
			</g>
		</g>
		<g id="gear">
			<path fill="#FFFFFF" d="M1103.1,654.8v-11l-8.4-2.6c-0.7-2.6-1.7-5-3-7.2l4.1-7.8l-7.8-7.8l-7.8,4.1c-2.3-1.3-4.7-2.3-7.2-3
				l-2.6-8.4h-11l-2.6,8.4c-2.6,0.7-5,1.7-7.2,3l-7.8-4.1l-7.8,7.8l4.1,7.8c-1.3,2.3-2.3,4.7-3,7.2l-8.4,2.6v11l8.4,2.6
				c0.7,2.6,1.7,5,3,7.2l-4.1,7.8l7.8,7.8l7.8-4.1c2.3,1.3,4.7,2.3,7.2,3l2.6,8.4h11l2.6-8.4c2.6-0.7,5-1.7,7.2-3l7.8,4.1l7.8-7.8
				l-4.1-7.8c1.3-2.3,2.3-4.7,3-7.2L1103.1,654.8z M1064.9,672.6c-12.9,0-23.3-10.5-23.3-23.3c0-12.9,10.5-23.3,23.3-23.3
				c12.9,0,23.3,10.5,23.3,23.3C1088.3,662.2,1077.8,672.6,1064.9,672.6z"/>
			<path fill="#FFFFFF" d="M1064.9,584.8c35.6,0,64.5,28.9,64.5,64.5c0,35.6-28.9,64.5-64.5,64.5c-35.6,0-64.5-28.9-64.5-64.5
				C1000.4,613.7,1029.3,584.8,1064.9,584.8 M1064.9,578.8c-38.9,0-70.5,31.6-70.5,70.5c0,38.9,31.6,70.5,70.5,70.5
				s70.5-31.6,70.5-70.5C1135.4,610.4,1103.8,578.8,1064.9,578.8L1064.9,578.8z"/>
		</g>
		<g id="dollar">
			<g>
				<path fill="#FFFFFF" d="M780.9,673.4c0.1,5.7-1.5,10.2-4.8,13.4c-2,1.9-4.5,3.1-7.5,3.6v4.7h-8.5v-4.9c-4-1-7.1-3.4-9.3-7.1
					c-1.8-3.2-2.9-6.9-3.1-11.2l9.6-0.7c0.4,3.9,1.4,6.7,3,8.4c1.2,1.3,2.6,1.9,4.1,1.9c2.2-0.1,4-1.2,5.3-3.2c0.7-1,1-2.5,1-4.4
					c0-2.7-1.2-5.5-3.7-8.2c-2-1.9-5-4.7-9-8.5c-3.1-2.9-5.3-5.6-6.7-8.1c-1.7-3-2.6-6.4-2.6-9.9c0-3.4,0.8-6.6,2.4-9.4
					c2-3.5,4.9-5.7,8.9-6.7v-4.3h8.5v4.3c2.7,0.6,4.9,1.7,6.7,3.4c3.1,2.9,4.9,6.7,5.2,11.4l-9.7,1.8c-0.3-2.7-1.1-4.8-2.3-6.4
					c-0.9-1.1-2.2-1.6-3.9-1.6c-1.8,0-3.2,0.8-4.2,2.4c-0.8,1.3-1.2,2.9-1.2,4.9c0,3,1.3,6.2,3.9,9.4c1,1.1,2.4,2.5,4.4,4.2
					c2.3,1.9,3.9,3.3,4.7,4.1c2.5,2.6,4.4,5,5.7,7.3C779.8,667.4,780.9,670.6,780.9,673.4z"/>
			</g>
			<path fill="#FFFFFF" d="M764.3,592.4c35.6,0,64.5,28.9,64.5,64.5c0,35.6-28.9,64.5-64.5,64.5c-35.6,0-64.5-28.9-64.5-64.5
				C699.8,621.3,728.7,592.4,764.3,592.4 M764.3,586.4c-38.9,0-70.5,31.6-70.5,70.5s31.6,70.5,70.5,70.5s70.5-31.6,70.5-70.5
				S803.2,586.4,764.3,586.4L764.3,586.4z"/>
		</g>
		<g id="dollar_1_">
			<g>
				<path fill="#FFFFFF" d="M587,507c0.1,5.7-1.5,10.2-4.8,13.4c-2,1.9-4.5,3.1-7.5,3.6v4.7h-8.5v-4.9c-4-1-7.1-3.4-9.3-7.1
					c-1.8-3.2-2.9-6.9-3.1-11.2l9.6-0.7c0.4,3.9,1.4,6.7,3,8.4c1.2,1.3,2.6,1.9,4.1,1.9c2.2-0.1,4-1.2,5.3-3.2c0.7-1,1-2.5,1-4.4
					c0-2.7-1.2-5.5-3.7-8.2c-2-1.9-5-4.7-9-8.5c-3.1-2.9-5.3-5.6-6.7-8.1c-1.7-3-2.6-6.4-2.6-9.9c0-3.4,0.8-6.6,2.4-9.4
					c2-3.5,4.9-5.7,8.9-6.7v-4.3h8.5v4.3c2.7,0.6,4.9,1.7,6.7,3.4c3.1,2.9,4.9,6.7,5.2,11.4l-9.7,1.8c-0.3-2.7-1.1-4.8-2.3-6.4
					c-0.9-1.1-2.2-1.6-3.9-1.6c-1.8,0-3.2,0.8-4.2,2.4c-0.8,1.3-1.2,2.9-1.2,4.9c0,3,1.3,6.2,3.9,9.4c1,1.1,2.4,2.5,4.4,4.2
					c2.3,1.9,3.9,3.3,4.7,4.1c2.5,2.6,4.4,5,5.7,7.3C585.9,501,586.9,504.1,587,507z"/>
			</g>
			<path fill="#FFFFFF" d="M570.4,426c35.6,0,64.5,28.9,64.5,64.5c0,35.6-28.9,64.5-64.5,64.5c-35.6,0-64.5-28.9-64.5-64.5
				C505.9,454.9,534.7,426,570.4,426 M570.4,420c-38.9,0-70.5,31.6-70.5,70.5s31.6,70.5,70.5,70.5s70.5-31.6,70.5-70.5
				S609.2,420,570.4,420L570.4,420z"/>
		</g>
		<g id="calculator">
			<path fill="#FFFFFF" d="M469.7,713.8v76.4h54.9v-76.4H469.7z M485.4,782.5h-8v-7.7h8V782.5z M485.4,772.4h-8v-7.7h8V772.4z
				 M485.4,762.2h-8v-7.7h8V762.2z M485.4,752h-8v-7.7h8V752z M496,782.5h-8v-7.7h8V782.5z M496,772.4h-8v-7.7h8V772.4z M496,762.2
				h-8v-7.7h8V762.2z M496,752h-8v-7.7h8V752z M506.5,782.5h-8v-7.7h8V782.5z M506.5,772.4h-8v-7.7h8V772.4z M506.5,762.2h-8v-7.7h8
				V762.2z M506.5,752h-8v-7.7h8V752z M517,782.5h-8v-7.7h8V782.5z M517,772.4h-8v-7.7h8V772.4z M517,762.2h-8v-7.7h8V762.2z
				 M517,752h-8v-7.7h8V752z M517,735.4h-39.6v-14H517V735.4z"/>
			<path fill="#FFFFFF" d="M497.2,687.5c35.6,0,64.5,28.9,64.5,64.5s-28.9,64.5-64.5,64.5s-64.5-28.9-64.5-64.5
				S461.6,687.5,497.2,687.5 M497.2,681.5c-38.9,0-70.5,31.6-70.5,70.5s31.6,70.5,70.5,70.5s70.5-31.6,70.5-70.5
				S536.1,681.5,497.2,681.5L497.2,681.5z"/>
		</g>
		<g id="person">
			<g>
				<polygon fill="#FFFFFF" points="541.4,1081.9 550.5,1081.9 548.4,1062.6 551.2,1057.6 545.9,1055.4 540.6,1057.6 543.4,1062.6 
									"/>
				<g>
					<polygon fill="#FFFFFF" points="587,1081.9 581.3,1057.7 558.8,1049.4 550.4,1081.9 					"/>
					<polygon fill="#FFFFFF" points="541.4,1081.9 533.1,1049.4 510.5,1057.7 504.8,1081.9 					"/>
				</g>
				<path id="XMLID_3_" fill="#FFFFFF" d="M557.2,1015.6c-2.6-4.1-9.4-4.8-11.3-4.9c-1.9,0.1-8.7,0.8-11.3,4.9
					c-2.7,4.3-2.2,11-1.1,15.7c1,4.2,0.8,10,3.4,12.6c4.5,4.6,5.9,5.5,9,5.5c3.1,0,4.5-1,9-5.5c2.6-2.6,2.4-8.4,3.4-12.6
					C559.4,1026.6,560,1020,557.2,1015.6z"/>
			</g>
			<path fill="#FFFFFF" d="M545.9,981.9c35.6,0,64.5,28.9,64.5,64.5c0,35.6-28.9,64.5-64.5,64.5s-64.5-28.9-64.5-64.5
				C481.4,1010.7,510.3,981.9,545.9,981.9 M545.9,975.9c-38.9,0-70.5,31.6-70.5,70.5c0,38.9,31.6,70.5,70.5,70.5
				s70.5-31.6,70.5-70.5C616.4,1007.5,584.8,975.9,545.9,975.9L545.9,975.9z"/>
		</g>
		<g id="person_1_">
			<g>
				<polygon fill="#FFFFFF" points="981.8,387.9 990.5,387.9 988.6,369.3 991.3,364.5 986.1,362.4 981,364.5 983.7,369.3 				"/>
				<g>
					<polygon fill="#FFFFFF" points="1025.7,387.9 1020.3,364.6 998.5,356.6 990.4,387.9 					"/>
					<polygon fill="#FFFFFF" points="981.8,387.9 973.8,356.6 952,364.6 946.6,387.9 					"/>
				</g>
				<path id="XMLID_2_" fill="#FFFFFF" d="M997,324.1c-2.5-3.9-9.1-4.6-10.9-4.7c-1.8,0.1-8.4,0.8-10.9,4.7
					c-2.6,4.2-2.1,10.6-1,15.1c1,4,0.8,9.6,3.3,12.1c4.3,4.4,5.6,5.3,8.7,5.3c3,0,4.3-0.9,8.7-5.3c2.5-2.5,2.3-8.1,3.3-12.1
					C999.2,334.6,999.7,328.3,997,324.1z"/>
			</g>
			<path fill="#FFFFFF" d="M986.1,289.2c35.6,0,64.5,28.9,64.5,64.5c0,35.6-28.9,64.5-64.5,64.5s-64.5-28.9-64.5-64.5
				C921.7,318,950.5,289.2,986.1,289.2 M986.1,283.2c-38.9,0-70.5,31.6-70.5,70.5s31.6,70.5,70.5,70.5c38.9,0,70.5-31.6,70.5-70.5
				S1025,283.2,986.1,283.2L986.1,283.2z"/>
		</g>
		<g id="column_graph">
			<path fill="#FFFFFF" d="M334.8,382.9c35.5,0,64.2,28.9,64.2,64.5c0,35.6-28.8,64.5-64.2,64.5s-64.2-28.9-64.2-64.5
				C270.6,411.8,299.3,382.9,334.8,382.9 M334.8,376.9c-38.7,0-70.2,31.6-70.2,70.5s31.5,70.5,70.2,70.5s70.2-31.6,70.2-70.5
				S373.6,376.9,334.8,376.9L334.8,376.9z"/>
			<g>
				<rect x="360.3" y="411.7" fill="#FFFFFF" width="14.6" height="71.3"/>
				<rect x="338.5" y="426" fill="#FFFFFF" width="14.6" height="57"/>
				<rect x="316.6" y="440.3" fill="#FFFFFF" width="14.6" height="42.8"/>
				<rect x="294.8" y="454.5" fill="#FFFFFF" width="14.6" height="28.5"/>
			</g>
		</g>
		<g id="message">
			<path fill="#FFFFFF" d="M893.3,808.8c35.6,0,64.5,28.9,64.5,64.5s-28.9,64.5-64.5,64.5c-35.6,0-64.5-28.9-64.5-64.5
				S857.7,808.8,893.3,808.8 M893.3,802.8c-38.9,0-70.5,31.6-70.5,70.5s31.6,70.5,70.5,70.5s70.5-31.6,70.5-70.5
				S932.2,802.8,893.3,802.8L893.3,802.8z"/>
			<path fill="#FFFFFF" d="M850,842v51.6h71.6l14.9,10.9V842H850z M921.7,885h-56.7v-3h56.7V885z M921.7,877.2h-56.7v-3h56.7V877.2z
				 M921.7,869.3h-56.7v-3h56.7V869.3z M921.7,861.5h-56.7v-3h56.7V861.5z M921.7,853.7h-56.7v-3h56.7V853.7z"/>
		</g>
	</g>
</g>
</svg>
